<?xml version="1.0" encoding="utf-8"?>
<!-- Generator: Adobe Illustrator 20.1.0, SVG Export Plug-In . SVG Version: 6.00 Build 0)  -->
<svg version="1.1" id="Capa_1" xmlns="http://www.w3.org/2000/svg" xmlns:xlink="http://www.w3.org/1999/xlink" x="0px" y="0px"
	 viewBox="0 0 61.9 61.5" style="enable-background:new 0 0 61.9 61.5;" xml:space="preserve">
<style type="text/css">
	.st0{fill:#FFFFFF;}
</style>
<g>
	<path class="st0" d="M31,20.7c5.7,0,10.4-4.6,10.4-10.4C41.3,4.6,36.7,0,31,0S20.6,4.6,20.6,10.4C20.6,16.1,25.3,20.7,31,20.7z
		 M31,2c4.6,0,8.4,3.7,8.4,8.4c0,4.6-3.8,8.4-8.4,8.4s-8.4-3.7-8.4-8.4C22.6,5.7,26.4,2,31,2z"/>
	<path class="st0" d="M57.7,39.3c-0.1-0.5-0.5-0.8-1-0.8h-4.9v-3.7c0-7.1-5.6-12.7-12.7-12.7H23.3c-7.3,0-13.2,5.7-13.2,12.7v3.7
		H5.2c-0.5,0-0.9,0.3-1,0.8L0,60.3c-0.1,0.3,0,0.6,0.2,0.8c0.2,0.2,0.5,0.4,0.8,0.4h60c0.3,0,0.6-0.1,0.8-0.4
		c0.2-0.2,0.3-0.5,0.2-0.8L57.7,39.3z M12.1,34.8c0-5.9,5-10.7,11.2-10.7h15.8c6,0,10.7,4.7,10.7,10.7v3.7h-3.3l0.7-5.8
		c0-0.3-0.1-0.6-0.2-0.8c-0.2-0.2-0.5-0.3-0.7-0.3H15.7c-0.3,0-0.6,0.1-0.7,0.3c-0.2,0.2-0.3,0.5-0.2,0.8l0.7,5.8h-3.3V34.8z
		 M16.9,33.6h28.2l-0.7,5.8c0,0,0,0.1,0,0.1c0,0,0,0,0,0L43.2,50H18.8L16.9,33.6z M2.2,59.5l3.8-19h9.6l1.2,10.5
		c0.1,0.5,0.5,0.9,1,0.9h26.2c0.5,0,0.9-0.4,1-0.9l1.2-10.5h9.6l3.8,19H2.2z"/>
</g>
</svg>
