<svg id="Capa_1" xmlns="http://www.w3.org/2000/svg" viewBox="0 0 61.9 61.5"><style>.st0{fill:#fff}</style><path class="st0" d="M31 20.7c5.7 0 10.4-4.6 10.4-10.4C41.3 4.6 36.7 0 31 0S20.6 4.6 20.6 10.4c0 5.7 4.7 10.3 10.4 10.3zM31 2c4.6 0 8.4 3.7 8.4 8.4 0 4.6-3.8 8.4-8.4 8.4s-8.4-3.7-8.4-8.4S26.4 2 31 2zM57.7 39.3c-.1-.5-.5-.8-1-.8h-4.9v-3.7c0-7.1-5.6-12.7-12.7-12.7H23.3c-7.3 0-13.2 5.7-13.2 12.7v3.7H5.2c-.5 0-.9.3-1 .8L0 60.3c-.1.3 0 .6.2.8.2.2.5.4.8.4h60c.3 0 .6-.1.8-.4.2-.2.3-.5.2-.8l-4.3-21zm-45.6-4.5c0-5.9 5-10.7 11.2-10.7h15.8c6 0 10.7 4.7 10.7 10.7v3.7h-3.3l.7-5.8c0-.3-.1-.6-.2-.8-.2-.2-.5-.3-.7-.3H15.7c-.3 0-.6.1-.7.3-.2.2-.3.5-.2.8l.7 5.8h-3.3v-3.7zm4.8-1.2h28.2l-.7 5.8v.1L43.2 50H18.8l-1.9-16.4zM2.2 59.5l3.8-19h9.6L16.8 51c.1.5.5.9 1 .9H44c.5 0 .9-.4 1-.9l1.2-10.5h9.6l3.8 19H2.2z"/></svg>