<?xml version="1.0" encoding="utf-8"?>
<!-- Generator: Adobe Illustrator 20.1.0, SVG Export Plug-In . SVG Version: 6.00 Build 0)  -->
<svg version="1.1" id="Layer_1" xmlns="http://www.w3.org/2000/svg" xmlns:xlink="http://www.w3.org/1999/xlink" x="0px" y="0px"
	 viewBox="0 0 200 200" style="enable-background:new 0 0 200 200;" xml:space="preserve">
<style type="text/css">
	.st0{fill:#79C2EB;}
</style>
<path class="st0" d="M100,191l-78.8-45.5v-91L100,9l78.8,45.5v91L100,191 M100,196.7l83.8-48.3V51.7L100,3.3L16.2,51.7v96.7
	L100,196.7z"/>
<path class="st0" d="M62.9,100.4c0.1,0.5,0.3,0.9,0.7,1.2l50,45.8c0.9,0.8,2.2,0.7,3-0.2s0.7-2.2-0.2-3L68.1,100l48.3-44.2
	c0.9-0.8,0.9-2.1,0.2-3c-0.8-0.9-2.1-0.9-3-0.2l-50,45.8C63.1,99,62.8,99.7,62.9,100.4L62.9,100.4z"/>
</svg>
