<?xml version="1.0" encoding="utf-8"?>
<!-- Generator: Adobe Illustrator 20.1.0, SVG Export Plug-In . SVG Version: 6.00 Build 0)  -->
<svg version="1.1" id="Layer_1" xmlns="http://www.w3.org/2000/svg" xmlns:xlink="http://www.w3.org/1999/xlink" x="0px" y="0px"
	 viewBox="0 0 167.6 193.4" style="enable-background:new 0 0 167.6 193.4;" xml:space="preserve">
<style type="text/css">
	.st0{fill:#79C2EB;}
</style>
<title>arrow_right</title>
<path class="st0" d="M83.8,187.7L5,142.2v-91L83.8,5.7l78.8,45.5v91L83.8,187.7 M83.8,193.4l83.8-48.3V48.4L83.8,0L0,48.4v96.7
	L83.8,193.4z"/>
<path class="st0" d="M115.9,96.3c-0.1-0.5-0.3-0.9-0.7-1.2l-50-45.8c-0.9-0.7-2.3-0.5-3,0.4c-0.7,0.9-0.6,2.1,0.2,2.8l48.3,44.2
	l-48.3,44.2c-0.8,0.8-0.8,2.2,0,3c0.8,0.8,2,0.8,2.8,0.2l50-45.8C115.7,97.8,116,97.1,115.9,96.3z"/>
</svg>
