<svg id="Layer_1" data-name="Layer 1" xmlns="http://www.w3.org/2000/svg" viewBox="0 0 167.6 193.4"><defs><style>.cls-1{fill:#fff}</style></defs><title>arrow_right</title><path class="cls-1" d="M100 191l-78.8-45.5v-91L100 9l78.8 45.5v91L100 191m0 5.7l83.8-48.3V51.7L100 3.3 16.2 51.7v96.7l83.8 48.3z" transform="translate(-16.2 -3.3)"/><path class="cls-1" d="M132.11 99.62a1.85 1.85 0 0 0-.7-1.2l-50-45.8a2.13 2.13 0 0 0-2.8 3.2l48.3 44.2-48.3 44.2a2.13 2.13 0 0 0 2.8 3.2l50-45.8a2.61 2.61 0 0 0 .7-2z" transform="translate(-16.2 -3.3)"/></svg>