<?xml version="1.0" encoding="utf-8"?>
<!-- Generator: Adobe Illustrator 20.1.0, SVG Export Plug-In . SVG Version: 6.00 Build 0)  -->
<svg version="1.1" id="Capa_1" xmlns="http://www.w3.org/2000/svg" xmlns:xlink="http://www.w3.org/1999/xlink" x="0px" y="0px"
	 viewBox="0 0 63.2 71.8" style="enable-background:new 0 0 63.2 71.8;" xml:space="preserve">
<style type="text/css">
	.st0{fill:#FFFFFF;}
</style>
<g>
	<path class="st0" d="M13.2,35.5H6.6c-0.6,0-1,0.4-1,1c0,0.6,0.4,1,1,1h6.6c0.6,0,1-0.4,1-1C14.2,36,13.8,35.5,13.2,35.5z"/>
	<path class="st0" d="M24.4,35.5h-6.6c-0.6,0-1,0.4-1,1c0,0.6,0.4,1,1,1h6.6c0.6,0,1-0.4,1-1C25.4,36,24.9,35.5,24.4,35.5z"/>
	<path class="st0" d="M13.2,44.8H6.6c-0.6,0-1,0.4-1,1c0,0.6,0.4,1,1,1h6.6c0.6,0,1-0.4,1-1C14.2,45.3,13.8,44.8,13.2,44.8z"/>
	<path class="st0" d="M24.4,44.8h-6.6c-0.6,0-1,0.4-1,1c0,0.6,0.4,1,1,1h6.6c0.6,0,1-0.4,1-1C25.4,45.3,24.9,44.8,24.4,44.8z"/>
	<path class="st0" d="M13.2,53.5H6.6c-0.6,0-1,0.4-1,1c0,0.6,0.4,1,1,1h6.6c0.6,0,1-0.4,1-1C14.2,54,13.8,53.5,13.2,53.5z"/>
	<path class="st0" d="M24.4,53.5h-6.6c-0.6,0-1,0.4-1,1c0,0.6,0.4,1,1,1h6.6c0.6,0,1-0.4,1-1C25.4,54,24.9,53.5,24.4,53.5z"/>
	<path class="st0" d="M60.5,44.1V16.3c0-3.4-2.8-6.2-6.2-6.2h-15V1c0-0.6-0.4-1-1-1c-0.6,0-1,0.4-1,1v9.2H22V1c0-0.6-0.4-1-1-1
		c-0.6,0-1,0.4-1,1v9.2H6.2c-3.4,0-6.2,2.8-6.2,6.2v43.5C0,63.2,2.8,66,6.2,66h25.7c3.3,3.6,8,5.8,13.3,5.8c10,0,18.1-8.1,18.1-18.1
		C63.2,50.1,62.2,46.9,60.5,44.1z M6.2,12.2H20v4.2c0,0.6,0.4,1,1,1c0.6,0,1-0.4,1-1v-4.2h15.4v4.2c0,0.6,0.4,1,1,1c0.6,0,1-0.4,1-1
		v-4.2h15c2.3,0,4.2,1.9,4.2,4.2v7.9H2v-7.9C2,14,3.9,12.2,6.2,12.2z M6.2,64C3.9,64,2,62.1,2,59.8V26.3h56.5v15.2
		c-3.3-3.6-8.1-5.9-13.3-5.9c-10,0-18.1,8.1-18.1,18.1c0,3.8,1.2,7.4,3.2,10.3H6.2z M45.1,69.8c-8.9,0-16.1-7.2-16.1-16.1
		c0-8.9,7.2-16.1,16.1-16.1c8.9,0,16.1,7.2,16.1,16.1C61.2,62.5,54,69.8,45.1,69.8z"/>
	<path class="st0" d="M52.3,52.6h-6.2v-9c0-0.6-0.4-1-1-1c-0.6,0-1,0.4-1,1v9.9c0,0.4,0.3,0.8,0.7,0.9c0.1,0.1,0.3,0.1,0.4,0.1h7.1
		c0.6,0,1-0.4,1-1C53.3,53,52.8,52.6,52.3,52.6z"/>
</g>
</svg>
