<svg id="Capa_1" xmlns="http://www.w3.org/2000/svg" viewBox="0 0 63.2 71.8"><style>.st0{fill:#fff}</style><path class="st0" d="M13.2 35.5H6.6c-.6 0-1 .4-1 1s.4 1 1 1h6.6c.6 0 1-.4 1-1 0-.5-.4-1-1-1zM24.4 35.5h-6.6c-.6 0-1 .4-1 1s.4 1 1 1h6.6c.6 0 1-.4 1-1 0-.5-.5-1-1-1zM13.2 44.8H6.6c-.6 0-1 .4-1 1s.4 1 1 1h6.6c.6 0 1-.4 1-1 0-.5-.4-1-1-1zM24.4 44.8h-6.6c-.6 0-1 .4-1 1s.4 1 1 1h6.6c.6 0 1-.4 1-1 0-.5-.5-1-1-1zM13.2 53.5H6.6c-.6 0-1 .4-1 1s.4 1 1 1h6.6c.6 0 1-.4 1-1 0-.5-.4-1-1-1zM24.4 53.5h-6.6c-.6 0-1 .4-1 1s.4 1 1 1h6.6c.6 0 1-.4 1-1 0-.5-.5-1-1-1z"/><path class="st0" d="M60.5 44.1V16.3c0-3.4-2.8-6.2-6.2-6.2h-15V1c0-.6-.4-1-1-1s-1 .4-1 1v9.2H22V1c0-.6-.4-1-1-1s-1 .4-1 1v9.2H6.2C2.8 10.2 0 13 0 16.4v43.5C0 63.2 2.8 66 6.2 66h25.7c3.3 3.6 8 5.8 13.3 5.8 10 0 18.1-8.1 18.1-18.1-.1-3.6-1.1-6.8-2.8-9.6zM6.2 12.2H20v4.2c0 .6.4 1 1 1s1-.4 1-1v-4.2h15.4v4.2c0 .6.4 1 1 1s1-.4 1-1v-4.2h15c2.3 0 4.2 1.9 4.2 4.2v7.9H2v-7.9c0-2.4 1.9-4.2 4.2-4.2zm0 51.8C3.9 64 2 62.1 2 59.8V26.3h56.5v15.2c-3.3-3.6-8.1-5.9-13.3-5.9-10 0-18.1 8.1-18.1 18.1 0 3.8 1.2 7.4 3.2 10.3H6.2zm38.9 5.8c-8.9 0-16.1-7.2-16.1-16.1 0-8.9 7.2-16.1 16.1-16.1 8.9 0 16.1 7.2 16.1 16.1 0 8.8-7.2 16.1-16.1 16.1z"/><path class="st0" d="M52.3 52.6h-6.2v-9c0-.6-.4-1-1-1s-1 .4-1 1v9.9c0 .4.3.8.7.9.1.1.3.1.4.1h7.1c.6 0 1-.4 1-1 0-.5-.5-.9-1-.9z"/></svg>