<?xml version="1.0" encoding="utf-8"?>
<!-- Generator: Adobe Illustrator 20.1.0, SVG Export Plug-In . SVG Version: 6.00 Build 0)  -->
<svg version="1.1" id="Layer_1" xmlns="http://www.w3.org/2000/svg" xmlns:xlink="http://www.w3.org/1999/xlink" x="0px" y="0px"
	 viewBox="0 0 907.2 1235.4" style="enable-background:new 0 0 907.2 1235.4;" xml:space="preserve">
<style type="text/css">
	.st0{fill:#FFB312;stroke:#FFA300;stroke-width:11;stroke-miterlimit:10;}
	.st1{font-family:'ApexRounded-Book';}
	.st2{font-size:20px;}
</style>
<g>
	<polygon class="st0" points="-26.2,562.3 -26.2,673.4 70.1,728.9 166.3,673.4 166.3,562.3 70.1,506.7 	"/>
</g>
<g>
	<polygon class="st0" points="166.3,562.3 166.3,673.4 262.5,728.9 358.8,673.4 358.8,562.3 262.5,506.7 	"/>
</g>
<g>
	<polygon class="st0" points="-122.4,728.9 -122.4,840.1 -26.2,895.6 70.1,840.1 70.1,728.9 -26.2,673.4 	"/>
</g>
<g>
	<polygon class="st0" points="358.8,673.4 262.5,728.9 262.5,840.1 358.8,895.6 455,840.1 455,728.9 	"/>
</g>
<g>
	<polygon class="st0" points="-26.2,895.6 -26.2,1006.8 70.1,1062.3 166.3,1006.8 166.3,895.6 70.1,840.1 	"/>
</g>
<g>
	<polygon class="st0" points="-122.4,1062.3 -122.4,1173.5 -26.2,1229 70.1,1173.5 70.1,1062.3 -26.2,1006.8 	"/>
</g>
<g>
	<polygon class="st0" points="70.1,395.6 70.1,506.8 166.3,562.3 262.5,506.8 262.5,395.6 166.3,340.1 	"/>
</g>
<g>
	<polygon class="st0" points="-122.9,395.6 -122.9,506.8 -26.7,562.3 69.5,506.8 69.5,395.6 -26.7,340.1 	"/>
</g>
<g>
	<polygon class="st0" points="262.5,395.6 262.5,506.8 358.8,562.3 455,506.8 455,395.6 358.8,340.1 	"/>
</g>
<g>
	<polygon class="st0" points="358.8,340.5 358.8,229.3 262.5,173.8 166.3,229.3 166.3,340.5 262.5,396 	"/>
</g>
<g>
	<polygon class="st0" points="166.3,338.5 166.3,227.3 70,171.8 -26.2,227.3 -26.2,338.5 70,394 	"/>
</g>
<g>
	<polygon class="st0" points="69.5,173.1 69.5,61.9 -26.7,6.4 -122.9,61.9 -122.9,173.1 -26.7,228.6 	"/>
</g>
<g>
	<polygon class="st0" points="548.3,562.3 548.3,673.4 644.6,728.9 740.8,673.4 740.8,562.3 644.6,506.7 	"/>
</g>
<g>
	<polygon class="st0" points="740.8,562.3 740.8,673.4 837.1,728.9 933.3,673.4 933.3,562.3 837.1,506.7 	"/>
</g>
<g>
	<polygon class="st0" points="644.6,840.1 644.6,728.9 548.3,673.4 452.1,728.9 452.1,840.1 548.3,895.6 	"/>
</g>
<g>
	<polygon class="st0" points="837.1,728.9 837.1,840.1 933.3,895.6 1029.5,840.1 1029.5,728.9 933.3,673.4 	"/>
</g>
<g>
	<polygon class="st0" points="355.9,562.2 355.9,673.4 452.1,728.9 548.3,673.4 548.3,562.2 452.1,506.7 	"/>
</g>
<g>
	<polygon class="st0" points="740.8,895.6 740.8,1006.8 837.1,1062.3 933.3,1006.8 933.3,895.6 837.1,840.1 	"/>
</g>
<g>
	<polygon class="st0" points="837.1,1062.3 837.1,1173.5 933.3,1229 1029.5,1173.5 1029.5,1062.3 933.3,1006.8 	"/>
</g>
<g>
	<polygon class="st0" points="452.1,395.6 452.1,506.8 548.3,562.3 644.6,506.8 644.6,395.6 548.3,340.1 	"/>
</g>
<g>
	<polygon class="st0" points="644.6,395.6 644.6,506.8 740.8,562.3 837.1,506.8 837.1,395.6 740.8,340.1 	"/>
</g>
<g>
	<polygon class="st0" points="837.1,395.6 837.1,506.8 933.3,562.3 1029.5,506.8 1029.5,395.6 933.3,340.1 	"/>
</g>
<g>
	<polygon class="st0" points="933.3,340.5 933.3,229.3 837.1,173.8 740.8,229.3 740.8,340.5 837.1,396 	"/>
</g>
<g>
	<polygon class="st0" points="740.8,340.5 740.8,229.3 644.6,173.8 548.3,229.3 548.3,340.5 644.6,396 	"/>
</g>
<g>
	<polygon class="st0" points="1029.5,173.1 1029.5,61.9 933.3,6.4 837.1,61.9 837.1,173.1 933.3,228.6 	"/>
</g>
<g>
	<g>
		<polygon class="st0" points="644.6,728.9 644.6,840.1 740.8,895.6 837.1,840.1 837.1,728.9 740.8,673.4 		"/>
	</g>
	<g>
		<text transform="matrix(1 0 0 1 693.5004 772.667)" class="st1 st2">Automated </text>
		<text transform="matrix(1 0 0 1 696.9005 796.667)" class="st1 st2">workflows</text>
		<path d="M740.8,831.6c-5.8,0-10.5,4.7-10.5,10.5s4.7,10.5,10.5,10.5s10.5-4.7,10.5-10.5S746.6,831.6,740.8,831.6z M746.6,843.4
			h-4.4v4.4h-2.7v-4.4h-4.4v-2.7h4.4v-4.4h2.7v4.4h4.4V843.4z"/>
	</g>
</g>
<g>
	<g>
		<polygon class="st0" points="70.1,728.9 70.1,840.1 166.3,895.6 262.5,840.1 262.5,728.9 166.3,673.4 		"/>
	</g>
	<g>
		<text transform="matrix(1 0 0 1 86.5207 772.667)" class="st1 st2">Software solutions </text>
		<text transform="matrix(1 0 0 1 93.0207 796.667)" class="st1 st2">specific to Ruffer </text>
		<path d="M166.3,831.6c-5.8,0-10.5,4.7-10.5,10.5s4.7,10.5,10.5,10.5s10.5-4.7,10.5-10.5S172.1,831.6,166.3,831.6z M172.1,843.4
			h-4.4v4.4H165v-4.4h-4.4v-2.7h4.4v-4.4h2.7v4.4h4.4V843.4z"/>
	</g>
</g>
<g>
	<g>
		<polygon class="st0" points="166.3,895.6 166.3,1006.8 262.5,1062.3 358.8,1006.8 358.8,895.6 262.5,840.1 		"/>
	</g>
	<g>
		<text transform="matrix(1 0 0 1 202.5571 939.367)" class="st1 st2">Making Ruffer </text>
		<text transform="matrix(1 0 0 1 187.8571 963.367)" class="st1 st2">More Remarkable </text>
		<path d="M262.8,998.3c-5.8,0-10.5,4.7-10.5,10.5s4.7,10.5,10.5,10.5s10.5-4.7,10.5-10.5S268.6,998.3,262.8,998.3z M268.6,1010.1
			h-4.4v4.4h-2.7v-4.4h-4.4v-2.7h4.4v-4.4h2.7v4.4h4.4V1010.1z"/>
	</g>
</g>
<g>
	<g>
		<polygon class="st0" points="548.3,895.6 548.3,1006.8 644.6,1062.3 740.8,1006.8 740.8,895.6 644.6,840.1 		"/>
	</g>
	<g>
		<text transform="matrix(1 0 0 1 579.9708 923.366)" class="st1 st2">A portal to help</text>
		<text transform="matrix(1 0 0 1 586.5708 947.366)" class="st1 st2"> Ruffer thrive, </text>
		<text transform="matrix(1 0 0 1 589.7708 971.366)" class="st1 st2">not just grow</text>
		<path d="M644.6,998.3c-5.8,0-10.5,4.7-10.5,10.5s4.7,10.5,10.5,10.5s10.5-4.7,10.5-10.5C655,1003,650.3,998.3,644.6,998.3z
			 M650.3,1010.1h-4.4v4.4h-2.7v-4.4h-4.4v-2.7h4.4v-4.4h2.7v4.4h4.4V1010.1z"/>
	</g>
</g>
</svg>
