<?xml version="1.0" encoding="utf-8"?>
<!-- Generator: Adobe Illustrator 20.1.0, SVG Export Plug-In . SVG Version: 6.00 Build 0)  -->
<svg version="1.1" id="Layer_1" xmlns="http://www.w3.org/2000/svg" xmlns:xlink="http://www.w3.org/1999/xlink" x="0px" y="0px"
	 viewBox="0 0 64 66" style="enable-background:new 0 0 64 66;" xml:space="preserve">
<style type="text/css">
	.st0{fill:#FFFFFF;}
</style>
<path class="st0" d="M56.2,30.2c-3.7,0-6.8,2.6-7.6,6.1l-8.4-1.8c0-0.4,0.1-0.7,0.1-1.1c0-4.3-2.5-8-6.1-9.8l1-8.2
	c3.9-0.4,6.9-3.7,6.9-7.7c0-4.3-3.5-7.8-7.8-7.8s-7.8,3.5-7.8,7.8c0,3.9,2.9,7.1,6.6,7.7l-0.9,7.5c-0.9-0.3-1.9-0.4-2.9-0.4
	c-2.7,0-5.1,1-7,2.6l-8.8-8.3c1.2-1.4,1.9-3.1,1.9-5.1C15.5,7.5,12,4,7.8,4C3.5,4,0,7.5,0,11.8s3.5,7.8,7.8,7.8
	c1.6,0,3.1-0.5,4.3-1.3l8.9,8.4c-1.5,1.9-2.5,4.3-2.5,6.9c0,2.6,0.9,4.9,2.4,6.8L12.1,49c-1.2-0.8-2.7-1.3-4.3-1.3
	c-4.3,0-7.8,3.5-7.8,7.8s3.5,7.8,7.8,7.8s7.8-3.5,7.8-7.8c0-2-0.7-3.7-1.9-5.1l8.7-8.7c1.9,1.7,4.4,2.7,7.2,2.7
	c1.2,0,2.3-0.2,3.3-0.5l2.3,7.4c-2.7,1.2-4.5,3.9-4.5,7c0,4.3,3.5,7.8,7.8,7.8s7.8-3.5,7.8-7.8s-3.5-7.8-7.8-7.8
	c-0.4,0-0.9,0-1.3,0.1L34.9,43c2.5-1.4,4.5-3.7,5.3-6.6l8.6,1.8c0.2,4.1,3.6,7.4,7.7,7.4c4.3,0,7.8-3.5,7.8-7.8
	C64,33.7,60.5,30.2,56.2,30.2z M28.6,7.8c0-3.2,2.6-5.8,5.8-5.8s5.8,2.6,5.8,5.8s-2.6,5.8-5.8,5.8C31.2,13.5,28.6,10.9,28.6,7.8z
	 M44,58.3c0,3.2-2.6,5.8-5.8,5.8s-5.8-2.6-5.8-5.8s2.6-5.8,5.8-5.8S44,55.1,44,58.3z M2,11.8C2,8.6,4.6,6,7.8,6s5.8,2.6,5.8,5.7
	s-2.6,5.8-5.8,5.8S2,15,2,11.8z M7.8,61.2c-3.2,0-5.8-2.6-5.8-5.8s2.6-5.8,5.8-5.8s5.8,2.6,5.8,5.8C13.5,58.6,10.9,61.2,7.8,61.2z
	 M33.2,41.5C33.1,41.5,33.1,41.5,33.2,41.5c-0.2,0-0.3,0.1-0.4,0.2c-1,0.4-2.2,0.7-3.3,0.7c-4.9,0-8.9-4-8.9-8.9
	c0-2.4,1-4.6,2.6-6.2s3.8-2.6,6.3-2.6c4.9,0,8.9,4,8.9,8.9C38.3,37,36.2,40.1,33.2,41.5z M56.2,43.7c-3.2,0-5.8-2.6-5.8-5.8
	s2.6-5.8,5.8-5.8s5.8,2.6,5.8,5.8S59.4,43.7,56.2,43.7z"/>
</svg>
