<svg id="Layer_1" xmlns="http://www.w3.org/2000/svg" viewBox="0 0 64 66"><style>.st0{fill:#fff}</style><path class="st0" d="M56.2 30.2c-3.7 0-6.8 2.6-7.6 6.1l-8.4-1.8c0-.4.1-.7.1-1.1 0-4.3-2.5-8-6.1-9.8l1-8.2c3.9-.4 6.9-3.7 6.9-7.7 0-4.3-3.5-7.8-7.8-7.8s-7.8 3.5-7.8 7.8c0 3.9 2.9 7.1 6.6 7.7l-.9 7.5c-.9-.3-1.9-.4-2.9-.4-2.7 0-5.1 1-7 2.6l-8.8-8.3c1.2-1.4 1.9-3.1 1.9-5.1C15.5 7.5 12 4 7.8 4 3.5 4 0 7.5 0 11.8s3.5 7.8 7.8 7.8c1.6 0 3.1-.5 4.3-1.3l8.9 8.4c-1.5 1.9-2.5 4.3-2.5 6.9 0 2.6.9 4.9 2.4 6.8L12.1 49c-1.2-.8-2.7-1.3-4.3-1.3-4.3 0-7.8 3.5-7.8 7.8s3.5 7.8 7.8 7.8 7.8-3.5 7.8-7.8c0-2-.7-3.7-1.9-5.1l8.7-8.7c1.9 1.7 4.4 2.7 7.2 2.7 1.2 0 2.3-.2 3.3-.5l2.3 7.4c-2.7 1.2-4.5 3.9-4.5 7 0 4.3 3.5 7.8 7.8 7.8s7.8-3.5 7.8-7.8-3.5-7.8-7.8-7.8c-.4 0-.9 0-1.3.1L34.9 43c2.5-1.4 4.5-3.7 5.3-6.6l8.6 1.8c.2 4.1 3.6 7.4 7.7 7.4 4.3 0 7.8-3.5 7.8-7.8-.3-4.1-3.8-7.6-8.1-7.6zM28.6 7.8c0-3.2 2.6-5.8 5.8-5.8s5.8 2.6 5.8 5.8-2.6 5.8-5.8 5.8c-3.2-.1-5.8-2.7-5.8-5.8zM44 58.3c0 3.2-2.6 5.8-5.8 5.8s-5.8-2.6-5.8-5.8 2.6-5.8 5.8-5.8 5.8 2.6 5.8 5.8zM2 11.8C2 8.6 4.6 6 7.8 6s5.8 2.6 5.8 5.7-2.6 5.8-5.8 5.8S2 15 2 11.8zm5.8 49.4c-3.2 0-5.8-2.6-5.8-5.8s2.6-5.8 5.8-5.8 5.8 2.6 5.8 5.8c-.1 3.2-2.7 5.8-5.8 5.8zm25.4-19.7c-.1 0-.1 0 0 0-.2 0-.3.1-.4.2-1 .4-2.2.7-3.3.7-4.9 0-8.9-4-8.9-8.9 0-2.4 1-4.6 2.6-6.2s3.8-2.6 6.3-2.6c4.9 0 8.9 4 8.9 8.9-.1 3.4-2.2 6.5-5.2 7.9zm23 2.2c-3.2 0-5.8-2.6-5.8-5.8s2.6-5.8 5.8-5.8 5.8 2.6 5.8 5.8-2.6 5.8-5.8 5.8z"/></svg>