<svg xmlns="http://www.w3.org/2000/svg" viewBox="0 0 43.9 101.1"><path d="M3.9 23v26c0 9.9 8.1 18 18 18s18-8.1 18-18V23c0-9.9-8.1-18-18-18s-18 8.1-18 18zm-4 0c0-12.2 9.8-22 22-22s22 9.8 22 22v26c0 12.2-9.8 22-22 22s-22-9.8-22-22V23z"/><path d="M19.9 17c0-1.1.9-2 2-2s2 .9 2 2v8c0 1.1-.9 2-2 2s-2-.9-2-2v-8zM21.9 95.2l8.6-8.6c.8-.8 2-.8 2.8 0 .8.8.8 2 0 2.8l-10 10c-.4.4-.9.6-1.4.6s-1-.2-1.4-.6l-10-10c-.8-.8-.8-2 0-2.8.8-.8 2-.8 2.8 0l8.6 8.6z"/><path d="M21.9 82.2l8.6-8.6c.8-.8 2-.8 2.8 0 .8.8.8 2 0 2.8l-10 10c-.3.4-.8.6-1.4.6s-1-.2-1.4-.6l-10-10c-.8-.8-.8-2 0-2.8.8-.8 2-.8 2.8 0l8.6 8.6z"/></svg>