<svg id="_x2014_ÎÓÈ_x5F_2" xmlns="http://www.w3.org/2000/svg" viewBox="0 0 3617.8 2214.9"><style>.st0{fill:#afd3cd}</style><path class="st0" d="M247.4 184.9l7.9-78.2 7.9 78.2c.6 6.4-3.1 12.1-7.9 12.1-4.8 0-8.5-5.7-7.9-12.1zM6.4 201.9L15 .7l8.6 201.1c.2 4.9-3.7 9-8.6 9-4.9 0-8.8-4.1-8.6-8.9zM760.3 184.9l7.9-78.2 7.9 78.2c.6 6.4-3.1 12.1-7.9 12.1-4.8 0-8.5-5.7-7.9-12.1zM519.3 201.9L527.9.8l8.6 201.1c.2 4.9-3.7 9-8.6 9-4.9-.1-8.8-4.2-8.6-9zM374.8 460.2l7.9-78.2 7.9 78.2c.6 6.4-3.1 12.1-7.9 12.1-4.8.1-8.6-5.6-7.9-12.1zM646.6 477.2l8.6-201.1 8.6 201.1c.2 4.9-3.7 9-8.6 9-4.9 0-8.8-4.1-8.6-9zM126.2 477.2l8.6-201.1 8.6 201.1c.2 4.9-3.7 9-8.6 9-4.9 0-8.8-4.1-8.6-9zM899.1 460.2L907 382l7.9 78.2c.6 6.4-3.1 12.1-7.9 12.1-4.8.1-8.5-5.6-7.9-12.1zM1171 477.2l8.6-201.1 8.6 201.1c.2 4.9-3.7 9-8.6 9-4.9 0-8.8-4.1-8.6-9zM2472.1 460.2l7.9-78.2 7.9 78.2c.6 6.4-3.1 12.1-7.9 12.1-4.8.1-8.5-5.6-7.9-12.1zM2744 477.2l8.6-201.1 8.6 201.1c.2 4.9-3.7 9-8.6 9-4.9 0-8.8-4.1-8.6-9zM2996.5 460.2l7.9-78.2 7.9 78.2c.6 6.4-3.1 12.1-7.9 12.1-4.9.1-8.6-5.6-7.9-12.1zM3473.9 460.2l7.9-78.2 7.9 78.2c.6 6.4-3.1 12.1-7.9 12.1-4.8.1-8.5-5.6-7.9-12.1zM3268.3 477.2l8.6-201.1 8.6 201.1c.2 4.9-3.7 9-8.6 9-4.9 0-8.8-4.1-8.6-9zM1273.2 184.9l7.9-78.2 7.9 78.2c.6 6.4-3.1 12.1-7.9 12.1-4.8 0-8.5-5.7-7.9-12.1zM1032.2 201.9L1040.8.8l8.6 201.1c.2 4.9-3.7 9-8.6 9-4.9-.1-8.8-4.2-8.6-9zM1786.1 184.9l7.9-78.2 7.9 78.2c.6 6.4-3.1 12.1-7.9 12.1-4.8 0-8.5-5.7-7.9-12.1zM2107 402l7.9-78.2 7.9 78.2c.6 6.4-3.1 12.1-7.9 12.1-4.8 0-8.5-5.7-7.9-12.1zM1545.1 201.9L1553.7.8l8.6 201.1c.2 4.9-3.7 9-8.6 9-4.9-.1-8.8-4.2-8.6-9zM2299 184.9l7.9-78.2 7.9 78.2c.6 6.4-3.1 12.1-7.9 12.1-4.8 0-8.5-5.7-7.9-12.1zM2058 201.9L2066.6.8l8.6 201.1c.2 4.9-3.7 9-8.6 9-4.9-.1-8.8-4.2-8.6-9zM2811.9 184.9l7.9-78.2 7.9 78.2c.6 6.4-3.1 12.1-7.9 12.1-4.8 0-8.6-5.7-7.9-12.1zM2570.9 201.9L2579.5.8l8.6 201.1c.2 4.9-3.7 9-8.6 9-4.9-.1-8.8-4.2-8.6-9zM2339.9 568.5l8.6-201.1 8.6 201.1c.2 4.9-3.7 9-8.6 9-4.9-.1-8.8-4.1-8.6-9zM1386 402l7.9-78.2 7.9 78.2c.6 6.4-3.1 12.1-7.9 12.1-4.8 0-8.5-5.7-7.9-12.1zM1618.8 494.8l8.6-201.1 8.6 201.1c.2 4.9-3.7 9-8.6 9-4.9-.1-8.8-4.2-8.6-9zM3324.8 184.9l7.9-78.2 7.9 78.2c.6 6.4-3.1 12.1-7.9 12.1-4.8 0-8.6-5.7-7.9-12.1zM3083.8 201.9L3092.4.8l8.6 201.1c.2 4.9-3.7 9-8.6 9-4.9-.1-8.8-4.2-8.6-9zM3596.7 201.9L3605.3.8l8.6 201.1c.2 4.9-3.7 9-8.6 9-4.9-.1-8.9-4.2-8.6-9zM247.4 788.2l7.9-78.2 7.9 78.2c.6 6.4-3.1 12.1-7.9 12.1-4.8 0-8.5-5.7-7.9-12.1zM6.4 805.2L15 604l8.6 201.1c.2 4.9-3.7 9-8.6 9-4.9 0-8.8-4-8.6-8.9zM760.3 788.2l7.9-78.2 7.9 78.2c.6 6.4-3.1 12.1-7.9 12.1-4.8 0-8.5-5.7-7.9-12.1zM519.3 805.2l8.6-201.1 8.6 201.1c.2 4.9-3.7 9-8.6 9-4.9-.1-8.8-4.1-8.6-9zM374.8 1063.6l7.9-78.2 7.9 78.2c.6 6.4-3.1 12.1-7.9 12.1-4.8 0-8.6-5.7-7.9-12.1zM646.6 1080.6l8.6-201.1 8.6 201.1c.2 4.9-3.7 9-8.6 9-4.9-.1-8.8-4.2-8.6-9zM126.2 1080.6l8.6-201.1 8.6 201.1c.2 4.9-3.7 9-8.6 9-4.9-.1-8.8-4.2-8.6-9zM899.1 1063.6l7.9-78.2 7.9 78.2c.6 6.4-3.1 12.1-7.9 12.1-4.8 0-8.5-5.7-7.9-12.1zM1283.5 1063.6l7.9-78.2 7.9 78.2c.6 6.4-3.1 12.1-7.9 12.1-4.8 0-8.5-5.7-7.9-12.1zM1947.8 1063.6l7.9-78.2 7.9 78.2c.6 6.4-3.1 12.1-7.9 12.1-4.8 0-8.5-5.7-7.9-12.1zM2472.1 1063.6l7.9-78.2 7.9 78.2c.6 6.4-3.1 12.1-7.9 12.1-4.8 0-8.5-5.7-7.9-12.1zM2744 1080.6l8.6-201.1 8.6 201.1c.2 4.9-3.7 9-8.6 9-4.9-.1-8.8-4.2-8.6-9zM2996.5 1063.6l7.9-78.2 7.9 78.2c.6 6.4-3.1 12.1-7.9 12.1-4.9 0-8.6-5.7-7.9-12.1zM3473.9 1063.6l7.9-78.2 7.9 78.2c.6 6.4-3.1 12.1-7.9 12.1-4.8 0-8.5-5.7-7.9-12.1zM3268.3 1080.6l8.6-201.1 8.6 201.1c.2 4.9-3.7 9-8.6 9-4.9-.1-8.8-4.2-8.6-9zM2811.9 788.2l7.9-78.2 7.9 78.2c.6 6.4-3.1 12.1-7.9 12.1-4.8 0-8.6-5.7-7.9-12.1zM3324.8 788.2l7.9-78.2 7.9 78.2c.6 6.4-3.1 12.1-7.9 12.1-4.8 0-8.6-5.7-7.9-12.1zM3083.8 805.2l8.6-201.1 8.6 201.1c.2 4.9-3.7 9-8.6 9-4.9-.1-8.8-4.1-8.6-9zM3596.7 805.2l8.6-201.1 8.6 201.1c.2 4.9-3.7 9-8.6 9-4.9-.1-8.9-4.1-8.6-9zM247.4 1310.3l7.9-78.2 7.9 78.2c.6 6.4-3.1 12.1-7.9 12.1-4.8 0-8.5-5.7-7.9-12.1zM6.4 1327.3l8.6-218.7 8.6 218.7c.2 4.9-3.7 9-8.6 9-4.9-.1-8.8-4.2-8.6-9zM760.3 1310.3l7.9-78.2 7.9 78.2c.6 6.4-3.1 12.1-7.9 12.1-4.8 0-8.5-5.7-7.9-12.1zM519.3 1327.3l8.6-218.7 8.6 218.7c.2 4.9-3.7 9-8.6 9-4.9-.1-8.8-4.2-8.6-9zM374.8 1585.6l7.9-78.2 7.9 78.2c.6 6.4-3.1 12.1-7.9 12.1-4.8.1-8.6-5.6-7.9-12.1zM646.6 1602.6l8.6-201.1 8.6 201.1c.2 4.9-3.7 9-8.6 9-4.9 0-8.8-4.1-8.6-9zM126.2 1602.6l8.6-201.1 8.6 201.1c.2 4.9-3.7 9-8.6 9-4.9 0-8.8-4.1-8.6-9zM899.1 1585.6l7.9-78.2 7.9 78.2c.6 6.4-3.1 12.1-7.9 12.1-4.8.1-8.5-5.6-7.9-12.1zM1171 1602.6l8.6-201.1 8.6 201.1c.2 4.9-3.7 9-8.6 9-4.9 0-8.8-4.1-8.6-9zM2472.1 1585.6l7.9-78.2 7.9 78.2c.6 6.4-3.1 12.1-7.9 12.1-4.8.1-8.5-5.6-7.9-12.1zM2744 1602.6l8.6-201.1 8.6 201.1c.2 4.9-3.7 9-8.6 9-4.9 0-8.8-4.1-8.6-9zM2996.5 1585.6l7.9-78.2 7.9 78.2c.6 6.4-3.1 12.1-7.9 12.1-4.9.1-8.6-5.6-7.9-12.1zM3473.9 1585.6l7.9-78.2 7.9 78.2c.6 6.4-3.1 12.1-7.9 12.1-4.8.1-8.5-5.6-7.9-12.1zM3268.3 1602.6l8.6-201.1 8.6 201.1c.2 4.9-3.7 9-8.6 9-4.9 0-8.8-4.1-8.6-9zM1273.2 1310.3l7.9-78.2 7.9 78.2c.6 6.4-3.1 12.1-7.9 12.1-4.8 0-8.5-5.7-7.9-12.1zM1032.2 1327.3l8.6-218.7 8.6 218.7c.2 4.9-3.7 9-8.6 9-4.9-.1-8.8-4.2-8.6-9zM1786.1 1310.3l7.9-78.2 7.9 78.2c.6 6.4-3.1 12.1-7.9 12.1-4.8 0-8.5-5.7-7.9-12.1zM1545.1 1327.3l8.6-218.7 8.6 218.7c.2 4.9-3.7 9-8.6 9-4.9-.1-8.8-4.2-8.6-9zM2299 1310.3l7.9-78.2 7.9 78.2c.6 6.4-3.1 12.1-7.9 12.1-4.8 0-8.5-5.7-7.9-12.1zM2058 1327.3l8.6-218.7 8.6 218.7c.2 4.9-3.7 9-8.6 9-4.9-.1-8.8-4.2-8.6-9zM2811.9 1310.3l7.9-78.2 7.9 78.2c.6 6.4-3.1 12.1-7.9 12.1-4.8 0-8.6-5.7-7.9-12.1zM2570.9 1327.3l8.6-218.7 8.6 218.7c.2 4.9-3.7 9-8.6 9-4.9-.1-8.8-4.2-8.6-9zM3324.8 1310.3l7.9-78.2 7.9 78.2c.6 6.4-3.1 12.1-7.9 12.1-4.8 0-8.6-5.7-7.9-12.1zM3083.8 1327.3l8.6-218.7 8.6 218.7c.2 4.9-3.7 9-8.6 9-4.9-.1-8.8-4.2-8.6-9zM3596.7 1327.3l8.6-218.7 8.6 218.7c.2 4.9-3.7 9-8.6 9-4.9-.1-8.9-4.2-8.6-9zM247.4 1913.6l7.9-78.2 7.9 78.2c.6 6.4-3.1 12.1-7.9 12.1-4.8 0-8.5-5.7-7.9-12.1zM6.4 1930.6l8.6-201.1 8.6 201.1c.2 4.9-3.7 9-8.6 9-4.9-.1-8.8-4.1-8.6-9zM760.3 1913.6l7.9-78.2 7.9 78.2c.6 6.4-3.1 12.1-7.9 12.1-4.8 0-8.5-5.7-7.9-12.1zM519.3 1930.6l8.6-201.1 8.6 201.1c.2 4.9-3.7 9-8.6 9-4.9-.1-8.8-4.1-8.6-9zM374.8 2189l7.9-78.2 7.9 78.2c.6 6.4-3.1 12.1-7.9 12.1-4.8 0-8.6-5.7-7.9-12.1zM646.6 2206l8.6-201.1 8.6 201.1c.2 4.9-3.7 9-8.6 9-4.9-.1-8.8-4.2-8.6-9zM126.2 2206l8.6-201.1 8.6 201.1c.2 4.9-3.7 9-8.6 9-4.9-.1-8.8-4.2-8.6-9zM899.1 2189l7.9-78.2 7.9 78.2c.6 6.4-3.1 12.1-7.9 12.1-4.8 0-8.5-5.7-7.9-12.1zM2472.1 2189l7.9-78.2 7.9 78.2c.6 6.4-3.1 12.1-7.9 12.1-4.8 0-8.5-5.7-7.9-12.1zM2744 2206l8.6-201.1 8.6 201.1c.2 4.9-3.7 9-8.6 9-4.9-.1-8.8-4.2-8.6-9zM2996.5 2189l7.9-78.2 7.9 78.2c.6 6.4-3.1 12.1-7.9 12.1-4.9 0-8.6-5.7-7.9-12.1zM3473.9 2189l7.9-78.2 7.9 78.2c.6 6.4-3.1 12.1-7.9 12.1-4.8 0-8.5-5.7-7.9-12.1zM3268.3 2206l8.6-201.1 8.6 201.1c.2 4.9-3.7 9-8.6 9-4.9-.1-8.8-4.2-8.6-9zM2811.9 1913.6l7.9-78.2 7.9 78.2c.6 6.4-3.1 12.1-7.9 12.1-4.8 0-8.6-5.7-7.9-12.1zM3324.8 1913.6l7.9-78.2 7.9 78.2c.6 6.4-3.1 12.1-7.9 12.1-4.8 0-8.6-5.7-7.9-12.1zM3083.8 1930.6l8.6-201.1 8.6 201.1c.2 4.9-3.7 9-8.6 9-4.9-.1-8.8-4.1-8.6-9zM3596.7 1930.6l8.6-201.1 8.6 201.1c.2 4.9-3.7 9-8.6 9-4.9-.1-8.9-4.1-8.6-9z"/></svg>