<svg id="_x2014_ÎÓÈ_x5F_2" xmlns="http://www.w3.org/2000/svg" viewBox="0 0 3617.8 2214.9"><style>.st0{fill:#afd3cd}</style><path class="st0" d="M247.4 184.9l7.9-78.2 7.9 78.2c.6 6.4-3.1 12.1-7.9 12.1-4.8 0-8.5-5.7-7.9-12.1zm-241 17L15 .7l8.6 201.1c.2 4.9-3.7 9-8.6 9s-8.8-4.1-8.6-8.9zm753.9-17l7.9-78.2 7.9 78.2c.6 6.4-3.1 12.1-7.9 12.1-4.8 0-8.5-5.7-7.9-12.1zm-241 17L527.9.8l8.6 201.1c.2 4.9-3.7 9-8.6 9-4.9-.1-8.8-4.2-8.6-9zM374.8 460.2l7.9-78.2 7.9 78.2c.6 6.4-3.1 12.1-7.9 12.1-4.8.1-8.6-5.6-7.9-12.1zm271.8 17l8.6-201.1 8.6 201.1c.2 4.9-3.7 9-8.6 9-4.9 0-8.8-4.1-8.6-9zm-520.4 0l8.6-201.1 8.6 201.1c.2 4.9-3.7 9-8.6 9-4.9 0-8.8-4.1-8.6-9zm772.9-17L907 382l7.9 78.2c.6 6.4-3.1 12.1-7.9 12.1-4.8.1-8.5-5.6-7.9-12.1zm271.9 17l8.6-201.1 8.6 201.1c.2 4.9-3.7 9-8.6 9s-8.8-4.1-8.6-9zm1301.1-17l7.9-78.2 7.9 78.2c.6 6.4-3.1 12.1-7.9 12.1-4.8.1-8.5-5.6-7.9-12.1zm271.9 17l8.6-201.1 8.6 201.1c.2 4.9-3.7 9-8.6 9-4.9 0-8.8-4.1-8.6-9zm252.5-17l7.9-78.2 7.9 78.2c.6 6.4-3.1 12.1-7.9 12.1-4.9.1-8.6-5.6-7.9-12.1zm477.4 0l7.9-78.2 7.9 78.2c.6 6.4-3.1 12.1-7.9 12.1-4.8.1-8.5-5.6-7.9-12.1zm-205.6 17l8.6-201.1 8.6 201.1c.2 4.9-3.7 9-8.6 9-4.9 0-8.8-4.1-8.6-9zM1273.2 184.9l7.9-78.2 7.9 78.2c.6 6.4-3.1 12.1-7.9 12.1s-8.5-5.7-7.9-12.1zm-241 17L1040.8.8l8.6 201.1c.2 4.9-3.7 9-8.6 9-4.9-.1-8.8-4.2-8.6-9zm753.9-17l7.9-78.2 7.9 78.2c.6 6.4-3.1 12.1-7.9 12.1s-8.5-5.7-7.9-12.1zM2107 402l7.9-78.2 7.9 78.2c.6 6.4-3.1 12.1-7.9 12.1-4.8 0-8.5-5.7-7.9-12.1zm-561.9-200.1L1553.7.8l8.6 201.1c.2 4.9-3.7 9-8.6 9-4.9-.1-8.8-4.2-8.6-9zm753.9-17l7.9-78.2 7.9 78.2c.6 6.4-3.1 12.1-7.9 12.1-4.8 0-8.5-5.7-7.9-12.1zm-241 17L2066.6.8l8.6 201.1c.2 4.9-3.7 9-8.6 9-4.9-.1-8.8-4.2-8.6-9zm-52.5 380.3l8.6-201.1 8.6 201.1c.2 4.9-3.7 9-8.6 9-4.9-.1-8.8-4.2-8.6-9zm806.4-397.3l7.9-78.2 7.9 78.2c.6 6.4-3.1 12.1-7.9 12.1-4.8 0-8.6-5.7-7.9-12.1zm-241 17L2579.5.8l8.6 201.1c.2 4.9-3.7 9-8.6 9-4.9-.1-8.8-4.2-8.6-9zm-231 366.6l8.6-201.1 8.6 201.1c.2 4.9-3.7 9-8.6 9-4.9-.1-8.8-4.1-8.6-9zM1386 402l7.9-78.2 7.9 78.2c.6 6.4-3.1 12.1-7.9 12.1s-8.5-5.7-7.9-12.1zm232.8 92.8l8.6-201.1 8.6 201.1c.2 4.9-3.7 9-8.6 9-4.9-.1-8.8-4.2-8.6-9zm234.6-92.8l7.9-78.2 7.9 78.2c.6 6.4-3.1 12.1-7.9 12.1s-8.5-5.7-7.9-12.1zm1471.4-217.1l7.9-78.2 7.9 78.2c.6 6.4-3.1 12.1-7.9 12.1-4.8 0-8.6-5.7-7.9-12.1zm-241 17L3092.4.8l8.6 201.1c.2 4.9-3.7 9-8.6 9-4.9-.1-8.8-4.2-8.6-9zm512.9 0L3605.3.8l8.6 201.1c.2 4.9-3.7 9-8.6 9-4.9-.1-8.9-4.2-8.6-9zM247.4 788.2l7.9-78.2 7.9 78.2c.6 6.4-3.1 12.1-7.9 12.1-4.8 0-8.5-5.7-7.9-12.1zm-241 17L15 604l8.6 201.1c.2 4.9-3.7 9-8.6 9s-8.8-4-8.6-8.9zm753.9-17l7.9-78.2 7.9 78.2c.6 6.4-3.1 12.1-7.9 12.1-4.8 0-8.5-5.7-7.9-12.1zm-241 17l8.6-201.1 8.6 201.1c.2 4.9-3.7 9-8.6 9-4.9-.1-8.8-4.1-8.6-9zm708.1-17l7.9-78.2 7.9 78.2c.6 6.4-3.1 12.1-7.9 12.1-4.8 0-8.5-5.7-7.9-12.1zm-241 17L995 604l8.6 201.1c.2 4.9-3.7 9-8.6 9-4.9 0-8.8-4-8.6-8.9zm753.9-17l7.9-78.2 7.9 78.2c.6 6.4-3.1 12.1-7.9 12.1s-8.5-5.7-7.9-12.1zm-241 17l8.6-201.1 8.6 201.1c.2 4.9-3.7 9-8.6 9-4.9-.1-8.8-4.1-8.6-9zm434.8-62.2l7.9-78.2 7.9 78.2c.6 6.4-3.1 12.1-7.9 12.1-4.8 0-8.5-5.7-7.9-12.1zm557.8 45.2l7.9-78.2 7.9 78.2c.6 6.4-3.1 12.1-7.9 12.1s-8.5-5.7-7.9-12.1zm-241 17l8.6-201.1 8.6 201.1c.2 4.9-3.7 9-8.6 9-4.9-.1-8.8-4.1-8.6-9zM374.8 1063.6l7.9-78.2 7.9 78.2c.6 6.4-3.1 12.1-7.9 12.1s-8.6-5.7-7.9-12.1zm271.8 17l8.6-201.1 8.6 201.1c.2 4.9-3.7 9-8.6 9-4.9-.1-8.8-4.2-8.6-9zm-520.4 0l8.6-201.1 8.6 201.1c.2 4.9-3.7 9-8.6 9-4.9-.1-8.8-4.2-8.6-9zm772.9-17l7.9-78.2 7.9 78.2c.6 6.4-3.1 12.1-7.9 12.1-4.8 0-8.5-5.7-7.9-12.1zm384.4 0l7.9-78.2 7.9 78.2c.6 6.4-3.1 12.1-7.9 12.1s-8.5-5.7-7.9-12.1zm664.3 0l7.9-78.2 7.9 78.2c.6 6.4-3.1 12.1-7.9 12.1s-8.5-5.7-7.9-12.1zm524.3 0l7.9-78.2 7.9 78.2c.6 6.4-3.1 12.1-7.9 12.1-4.8 0-8.5-5.7-7.9-12.1zm271.9 17l8.6-201.1 8.6 201.1c.2 4.9-3.7 9-8.6 9-4.9-.1-8.8-4.2-8.6-9zm252.5-17l7.9-78.2 7.9 78.2c.6 6.4-3.1 12.1-7.9 12.1-4.9 0-8.6-5.7-7.9-12.1zm477.4 0l7.9-78.2 7.9 78.2c.6 6.4-3.1 12.1-7.9 12.1-4.8 0-8.5-5.7-7.9-12.1zm-205.6 17l8.6-201.1 8.6 201.1c.2 4.9-3.7 9-8.6 9-4.9-.1-8.8-4.2-8.6-9zm-456.4-292.4l7.9-78.2 7.9 78.2c.6 6.4-3.1 12.1-7.9 12.1-4.8 0-8.6-5.7-7.9-12.1zm512.9 0l7.9-78.2 7.9 78.2c.6 6.4-3.1 12.1-7.9 12.1-4.8 0-8.6-5.7-7.9-12.1zm-241 17l8.6-201.1 8.6 201.1c.2 4.9-3.7 9-8.6 9-4.9-.1-8.8-4.1-8.6-9zm512.9 0l8.6-201.1 8.6 201.1c.2 4.9-3.7 9-8.6 9-4.9-.1-8.9-4.1-8.6-9zM247.4 1310.3l7.9-78.2 7.9 78.2c.6 6.4-3.1 12.1-7.9 12.1-4.8 0-8.5-5.7-7.9-12.1zm-241 17l8.6-218.7 8.6 218.7c.2 4.9-3.7 9-8.6 9-4.9-.1-8.8-4.2-8.6-9zm753.9-17l7.9-78.2 7.9 78.2c.6 6.4-3.1 12.1-7.9 12.1-4.8 0-8.5-5.7-7.9-12.1zm-241 17l8.6-218.7 8.6 218.7c.2 4.9-3.7 9-8.6 9-4.9-.1-8.8-4.2-8.6-9zm-144.5 258.3l7.9-78.2 7.9 78.2c.6 6.4-3.1 12.1-7.9 12.1-4.8.1-8.6-5.6-7.9-12.1zm271.8 17l8.6-201.1 8.6 201.1c.2 4.9-3.7 9-8.6 9-4.9 0-8.8-4.1-8.6-9zm-520.4 0l8.6-201.1 8.6 201.1c.2 4.9-3.7 9-8.6 9-4.9 0-8.8-4.1-8.6-9zm772.9-17l7.9-78.2 7.9 78.2c.6 6.4-3.1 12.1-7.9 12.1-4.8.1-8.5-5.6-7.9-12.1zm271.9 17l8.6-201.1 8.6 201.1c.2 4.9-3.7 9-8.6 9s-8.8-4.1-8.6-9zm252.5-17l7.9-78.2 7.9 78.2c.6 6.4-3.1 12.1-7.9 12.1-4.8.1-8.6-5.6-7.9-12.1zm271.8 17l8.6-201.1 8.6 201.1c.2 4.9-3.7 9-8.6 9-4.9 0-8.8-4.1-8.6-9zm252.5-17l7.9-78.2 7.9 78.2c.6 6.4-3.1 12.1-7.9 12.1-4.8.1-8.5-5.6-7.9-12.1zm271.9 17l8.6-201.1 8.6 201.1c.2 4.9-3.7 9-8.6 9-4.9 0-8.8-4.1-8.6-9zm252.4-17l7.9-78.2 7.9 78.2c.6 6.4-3.1 12.1-7.9 12.1-4.8.1-8.5-5.6-7.9-12.1zm271.9 17l8.6-201.1 8.6 201.1c.2 4.9-3.7 9-8.6 9-4.9 0-8.8-4.1-8.6-9zm252.5-17l7.9-78.2 7.9 78.2c.6 6.4-3.1 12.1-7.9 12.1-4.9.1-8.6-5.6-7.9-12.1zm477.4 0l7.9-78.2 7.9 78.2c.6 6.4-3.1 12.1-7.9 12.1-4.8.1-8.5-5.6-7.9-12.1zm-205.6 17l8.6-201.1 8.6 201.1c.2 4.9-3.7 9-8.6 9-4.9 0-8.8-4.1-8.6-9zm-1995.1-292.3l7.9-78.2 7.9 78.2c.6 6.4-3.1 12.1-7.9 12.1s-8.5-5.7-7.9-12.1zm-241 17l8.6-218.7 8.6 218.7c.2 4.9-3.7 9-8.6 9-4.9-.1-8.8-4.2-8.6-9zm586.6-279l8.6-218.7 8.6 218.7c.2 4.9-3.7 9-8.6 9-4.9-.1-8.8-4.2-8.6-9zm167.3 262l7.9-78.2 7.9 78.2c.6 6.4-3.1 12.1-7.9 12.1s-8.5-5.7-7.9-12.1zm-241 17l8.6-218.7 8.6 218.7c.2 4.9-3.7 9-8.6 9-4.9-.1-8.8-4.2-8.6-9zm753.9-17l7.9-78.2 7.9 78.2c.6 6.4-3.1 12.1-7.9 12.1-4.8 0-8.5-5.7-7.9-12.1zm-106.8-318.6l7.9-78.2 7.9 78.2c.6 6.4-3.1 12.1-7.9 12.1-4.8 0-8.5-5.7-7.9-12.1zM2058 1327.3l8.6-218.7 8.6 218.7c.2 4.9-3.7 9-8.6 9-4.9-.1-8.8-4.2-8.6-9zm753.9-17l7.9-78.2 7.9 78.2c.6 6.4-3.1 12.1-7.9 12.1-4.8 0-8.6-5.7-7.9-12.1zm-241 17l8.6-218.7 8.6 218.7c.2 4.9-3.7 9-8.6 9-4.9-.1-8.8-4.2-8.6-9zm-321 568.8l7.9-78.2 7.9 78.2c.6 6.4-3.1 12.1-7.9 12.1s-8.5-5.7-7.9-12.1zm-241 17l8.6-218.7 8.6 218.7c.2 4.9-3.7 9-8.6 9-4.9-.1-8.8-4.2-8.6-9zm552.9 0l8.6-218.7 8.6 218.7c.2 4.9-3.7 9-8.6 9-4.9-.1-8.8-4.2-8.6-9zm763-602.8l7.9-78.2 7.9 78.2c.6 6.4-3.1 12.1-7.9 12.1-4.8 0-8.6-5.7-7.9-12.1zm-241 17l8.6-218.7 8.6 218.7c.2 4.9-3.7 9-8.6 9-4.9-.1-8.8-4.2-8.6-9zm512.9 0l8.6-218.7 8.6 218.7c.2 4.9-3.7 9-8.6 9-4.9-.1-8.9-4.2-8.6-9zM247.4 1913.6l7.9-78.2 7.9 78.2c.6 6.4-3.1 12.1-7.9 12.1-4.8 0-8.5-5.7-7.9-12.1zm-241 17l8.6-201.1 8.6 201.1c.2 4.9-3.7 9-8.6 9-4.9-.1-8.8-4.1-8.6-9zm753.9-17l7.9-78.2 7.9 78.2c.6 6.4-3.1 12.1-7.9 12.1-4.8 0-8.5-5.7-7.9-12.1zm-241 17l8.6-201.1 8.6 201.1c.2 4.9-3.7 9-8.6 9-4.9-.1-8.8-4.1-8.6-9zm708.1-17l7.9-78.2 7.9 78.2c.6 6.4-3.1 12.1-7.9 12.1-4.8 0-8.5-5.7-7.9-12.1zm-241 17l8.6-201.1 8.6 201.1c.2 4.9-3.7 9-8.6 9-4.9-.1-8.8-4.1-8.6-9zm733.9-47l7.9-78.2 7.9 78.2c.6 6.4-3.1 12.1-7.9 12.1s-8.5-5.7-7.9-12.1zm-221 47l8.6-201.1 8.6 201.1c.2 4.9-3.7 9-8.6 9-4.9-.1-8.8-4.1-8.6-9zM374.8 2189l7.9-78.2 7.9 78.2c.6 6.4-3.1 12.1-7.9 12.1s-8.6-5.7-7.9-12.1zm271.8 17l8.6-201.1 8.6 201.1c.2 4.9-3.7 9-8.6 9-4.9-.1-8.8-4.2-8.6-9zm-520.4 0l8.6-201.1 8.6 201.1c.2 4.9-3.7 9-8.6 9-4.9-.1-8.8-4.2-8.6-9zm772.9-17l7.9-78.2 7.9 78.2c.6 6.4-3.1 12.1-7.9 12.1-4.8 0-8.5-5.7-7.9-12.1zm273.7 6l8.6-201.1 8.6 201.1c.2 4.9-3.7 9-8.6 9-4.9-.1-8.8-4.2-8.6-9zm252.5-6l7.9-78.2 7.9 78.2c.6 6.4-3.1 12.1-7.9 12.1-4.8 0-8.5-5.7-7.9-12.1zm1046.8 0l7.9-78.2 7.9 78.2c.6 6.4-3.1 12.1-7.9 12.1-4.8 0-8.5-5.7-7.9-12.1zm271.9 17l8.6-201.1 8.6 201.1c.2 4.9-3.7 9-8.6 9-4.9-.1-8.8-4.2-8.6-9zm252.5-17l7.9-78.2 7.9 78.2c.6 6.4-3.1 12.1-7.9 12.1-4.9 0-8.6-5.7-7.9-12.1zm477.4 0l7.9-78.2 7.9 78.2c.6 6.4-3.1 12.1-7.9 12.1-4.8 0-8.5-5.7-7.9-12.1zm-205.6 17l8.6-201.1 8.6 201.1c.2 4.9-3.7 9-8.6 9-4.9-.1-8.8-4.2-8.6-9zm-1526.3 0l8.6-201.1 8.6 201.1c.2 4.9-3.7 9-8.6 9-4.9-.1-8.8-4.2-8.6-9zm252.5-17l7.9-78.2 7.9 78.2c.6 6.4-3.1 12.1-7.9 12.1-4.9 0-8.6-5.7-7.9-12.1zm271.8 17l8.6-201.1 8.6 201.1c.2 4.9-3.7 9-8.6 9-4.9-.1-8.8-4.2-8.6-9zm545.6-292.4l7.9-78.2 7.9 78.2c.6 6.4-3.1 12.1-7.9 12.1-4.8 0-8.6-5.7-7.9-12.1zm512.9 0l7.9-78.2 7.9 78.2c.6 6.4-3.1 12.1-7.9 12.1-4.8 0-8.6-5.7-7.9-12.1zm-241 17l8.6-201.1 8.6 201.1c.2 4.9-3.7 9-8.6 9-4.9-.1-8.8-4.1-8.6-9zm512.9 0l8.6-201.1 8.6 201.1c.2 4.9-3.7 9-8.6 9-4.9-.1-8.9-4.1-8.6-9z"/></svg>