<svg id="Capa_1" xmlns="http://www.w3.org/2000/svg" viewBox="0 0 50.3 60.7"><style>.st0{fill:#fff}</style><path class="st0" d="M50.3 15.5c0-.1 0-.2-.1-.3v-.1c0-.1-.1-.2-.2-.3L35.5.3c-.1-.1-.2-.1-.3-.2h-.1c-.1-.1-.2-.1-.3-.1H2.3C1 0 0 1 0 2.3v56.1c0 1.3 1 2.3 2.3 2.3H48c1.3 0 2.3-1 2.3-2.3V15.5zM35.8 3.4l11.1 11.1H35.8V3.4zM48 58.7H2.3c-.2 0-.3-.1-.3-.3V2.3c0-.2.1-.3.3-.3h31.5v13.6c0 .6.4 1 1 1h13.6v41.9c-.1.1-.2.2-.4.2z"/><path class="st0" d="M8.9 9.1H27c.6 0 1-.4 1-1s-.4-1-1-1H8.9c-.6 0-1 .4-1 1 0 .5.5 1 1 1zM8.9 14.8h14.2c.6 0 1-.4 1-1s-.4-1-1-1H8.9c-.6 0-1 .4-1 1s.5 1 1 1zM8.9 20.5h16.8c.6 0 1-.4 1-1s-.4-1-1-1H8.9c-.6 0-1 .4-1 1s.5 1 1 1zM25.8 52.9H8.9c-.6 0-1 .4-1 1s.4 1 1 1h16.8c.6 0 1-.4 1-1 .1-.5-.4-1-.9-1zM41.4 26.9H8.9c-.6 0-1 .4-1 1v19.7c0 .6.4 1 1 1h32.4c.6 0 1-.4 1-1V27.9c.1-.6-.4-1-.9-1zm-1 19.7H9.9V28.9h30.4v17.7z"/></svg>