<?xml version="1.0" encoding="utf-8"?>
<!-- Generator: Adobe Illustrator 20.1.0, SVG Export Plug-In . SVG Version: 6.00 Build 0)  -->
<svg version="1.1" id="Capa_1" xmlns="http://www.w3.org/2000/svg" xmlns:xlink="http://www.w3.org/1999/xlink" x="0px" y="0px"
	 viewBox="0 0 50.3 60.7" style="enable-background:new 0 0 50.3 60.7;" xml:space="preserve">
<style type="text/css">
	.st0{fill:#FFFFFF;}
</style>
<g>
	<path class="st0" d="M50.3,15.5c0-0.1,0-0.2-0.1-0.3c0,0,0-0.1,0-0.1c0-0.1-0.1-0.2-0.2-0.3c0,0,0,0,0,0L35.5,0.3c0,0,0,0,0,0
		c-0.1-0.1-0.2-0.1-0.3-0.2c0,0-0.1,0-0.1,0C35,0,34.9,0,34.8,0c0,0,0,0-0.1,0H2.3C1,0,0,1,0,2.3v56.1c0,1.3,1,2.3,2.3,2.3H48
		c1.3,0,2.3-1,2.3-2.3L50.3,15.5C50.3,15.5,50.3,15.5,50.3,15.5z M35.8,3.4l11.1,11.1H35.8V3.4z M48,58.7H2.3
		c-0.2,0-0.3-0.1-0.3-0.3V2.3C2,2.1,2.1,2,2.3,2h31.5v13.6c0,0.6,0.4,1,1,1h13.6v41.9C48.3,58.6,48.2,58.7,48,58.7z"/>
	<path class="st0" d="M8.9,9.1h18.1c0.6,0,1-0.4,1-1c0-0.6-0.4-1-1-1H8.9c-0.6,0-1,0.4-1,1C7.9,8.6,8.4,9.1,8.9,9.1z"/>
	<path class="st0" d="M8.9,14.8h14.2c0.6,0,1-0.4,1-1s-0.4-1-1-1H8.9c-0.6,0-1,0.4-1,1S8.4,14.8,8.9,14.8z"/>
	<path class="st0" d="M8.9,20.5h16.8c0.6,0,1-0.4,1-1s-0.4-1-1-1H8.9c-0.6,0-1,0.4-1,1S8.4,20.5,8.9,20.5z"/>
	<path class="st0" d="M25.8,52.9H8.9c-0.6,0-1,0.4-1,1c0,0.6,0.4,1,1,1h16.8c0.6,0,1-0.4,1-1C26.8,53.4,26.3,52.9,25.8,52.9z"/>
	<path class="st0" d="M41.4,26.9H8.9c-0.6,0-1,0.4-1,1v19.7c0,0.6,0.4,1,1,1h32.4c0.6,0,1-0.4,1-1V27.9
		C42.4,27.3,41.9,26.9,41.4,26.9z M40.4,46.6H9.9V28.9h30.4V46.6z"/>
</g>
</svg>
